<svg id="Group_450" data-name="Group 450" xmlns="http://www.w3.org/2000/svg" width="12.725" height="18.184" viewBox="0 0 12.725 18.184">
  <path id="Path_1130" data-name="Path 1130" d="M1234,157.364h-7.342a2.7,2.7,0,0,0-2.692,2.692v12.8a2.7,2.7,0,0,0,2.692,2.692H1234a2.7,2.7,0,0,0,2.691-2.692v-12.8A2.7,2.7,0,0,0,1234,157.364Zm-7.342,1.242H1234a1.451,1.451,0,0,1,1.449,1.45v10.256H1225.2V160.056A1.451,1.451,0,0,1,1226.654,158.606Zm7.342,15.7h-7.342a1.451,1.451,0,0,1-1.449-1.45v-1.3h10.241v1.3A1.451,1.451,0,0,1,1234,174.306Z" transform="translate(-1223.962 -157.364)" fill="#fff"/>
  <path id="Path_1131" data-name="Path 1131" d="M1236.488,162.655a.5.5,0,1,0-.5-.5A.5.5,0,0,0,1236.488,162.655Z" transform="translate(-1230.295 -159.627)" fill="#fff"/>
  <path id="Path_1132" data-name="Path 1132" d="M1236.488,188.96a.5.5,0,1,0,.5.5A.5.5,0,0,0,1236.488,188.96Z" transform="translate(-1230.295 -173.998)" fill="#fff"/>
</svg>
