<svg id="Group_453" data-name="Group 453" xmlns="http://www.w3.org/2000/svg" width="13.886" height="17.86" viewBox="0 0 13.886 17.86">
  <g id="Group_451" data-name="Group 451" transform="translate(0 0)">
    <path id="Path_1134" data-name="Path 1134" d="M1235.542,219.683h0a.618.618,0,0,1-.454-.2c-.265-.285-6.488-7.025-6.488-10.719a6.943,6.943,0,0,1,13.886,0c0,3.694-6.223,10.434-6.488,10.719A.619.619,0,0,1,1235.542,219.683Zm0-16.618a5.707,5.707,0,0,0-5.7,5.7c0,2.451,3.767,7.2,5.7,9.372,1.934-2.176,5.7-6.921,5.7-9.372A5.707,5.707,0,0,0,1235.542,203.065Z" transform="translate(-1228.599 -201.823)" fill="#fff"/>
  </g>
  <g id="Group_452" data-name="Group 452" transform="translate(3.818 3.514)">
    <path id="Path_1135" data-name="Path 1135" d="M1239.786,215.495a3.126,3.126,0,1,1,3.126-3.126A3.129,3.129,0,0,1,1239.786,215.495Zm0-5.01a1.884,1.884,0,1,0,1.884,1.884A1.886,1.886,0,0,0,1239.786,210.485Z" transform="translate(-1236.661 -209.243)" fill="#fff"/>
  </g>
</svg>
