<svg id="Group_455" data-name="Group 455" xmlns="http://www.w3.org/2000/svg" width="24.62" height="24.62" viewBox="0 0 24.62 24.62">
  <g id="Group_454" data-name="Group 454" transform="translate(0 0)">
    <path id="Path_1136" data-name="Path 1136" d="M1558.692,238.627a1.443,1.443,0,1,0,1.444,1.443A1.443,1.443,0,0,0,1558.692,238.627Z" transform="translate(-1539.865 -234.231)" fill="#fff"/>
    <path id="Path_1137" data-name="Path 1137" d="M1547.451,241.287a6.063,6.063,0,1,0,6.063,6.063A6.07,6.07,0,0,0,1547.451,241.287Zm0,9.947a3.884,3.884,0,1,1,3.884-3.884A3.889,3.889,0,0,1,1547.451,251.234Z" transform="translate(-1535.04 -235.04)" fill="#fff"/>
    <path id="Path_1138" data-name="Path 1138" d="M1549.49,256.929h-9.829a7.4,7.4,0,0,1-7.395-7.4V239.7a7.4,7.4,0,0,1,7.395-7.4h9.829a7.4,7.4,0,0,1,7.4,7.4v9.829A7.4,7.4,0,0,1,1549.49,256.929Zm-9.829-22.3a5.084,5.084,0,0,0-5.079,5.079v9.829a5.084,5.084,0,0,0,5.079,5.079h9.829a5.084,5.084,0,0,0,5.079-5.079V239.7a5.084,5.084,0,0,0-5.079-5.079Z" transform="translate(-1532.266 -232.309)" fill="#fff"/>
  </g>
</svg>
