<svg xmlns="http://www.w3.org/2000/svg" width="29.913" height="24.62" viewBox="0 0 29.913 24.62">
  <path id="Path_1140" data-name="Path 1140" d="M1626.419,235.261a12.373,12.373,0,0,1-3.025.862c.486-.082,1.2-.963,1.487-1.319a5.537,5.537,0,0,0,1-1.831c.026-.052.046-.118-.006-.157a.171.171,0,0,0-.161.013,15.436,15.436,0,0,1-3.587,1.372.239.239,0,0,1-.247-.065,2.986,2.986,0,0,0-.313-.321,6.357,6.357,0,0,0-1.738-1.065,6.058,6.058,0,0,0-2.665-.429,6.382,6.382,0,0,0-2.528.714,6.533,6.533,0,0,0-2.039,1.667,6.271,6.271,0,0,0-1.218,2.44,6.609,6.609,0,0,0-.065,2.575c.019.144.007.164-.123.144-4.926-.733-9.009-2.5-12.325-6.272-.143-.164-.221-.164-.339.012-1.451,2.175-.747,5.668,1.065,7.384.241.229.49.457.757.666a6.27,6.27,0,0,1-2.378-.666c-.144-.091-.217-.039-.229.125a3.78,3.78,0,0,0,.039.706,6.319,6.319,0,0,0,3.9,5.038,3.664,3.664,0,0,0,.79.241,7.017,7.017,0,0,1-2.333.072c-.17-.033-.234.052-.17.216a6.56,6.56,0,0,0,4.9,4.1c.223.039.445.039.667.091-.013.02-.026.02-.04.04-.55.839-2.458,1.463-3.346,1.774a11.992,11.992,0,0,1-5.083.651c-.273-.04-.33-.037-.405,0s-.01.111.079.182c.346.229.7.431,1.058.628a16.778,16.778,0,0,0,3.4,1.359c6.106,1.687,12.984.447,17.569-4.108,3.6-3.577,4.862-8.51,4.862-13.45,0-.193.228-.3.363-.4a11.879,11.879,0,0,0,2.391-2.487.758.758,0,0,0,.159-.477v-.025C1626.542,235.181,1626.54,235.205,1626.419,235.261Z" transform="translate(-1596.629 -232.309)" fill="#fff"/>
</svg>
