<svg xmlns="http://www.w3.org/2000/svg" width="19.065" height="24.62" viewBox="0 0 19.065 24.62">
  <path id="Path_1141" data-name="Path 1141" d="M1672.562,248.369c-.021.071-.04.13-.056.19-.9,3.543-1,4.33-1.934,5.975a18.375,18.375,0,0,1-1.495,2.232c-.062.081-.12.184-.245.159s-.147-.152-.161-.26a19,19,0,0,1-.195-3.243c.047-1.416.222-1.9,2.047-9.578a.537.537,0,0,0-.042-.32,5.4,5.4,0,0,1-.142-3.587c.827-2.618,3.795-2.819,4.314-.658.319,1.336-.526,3.084-1.175,5.668-.538,2.133,1.972,3.648,4.118,2.092,1.978-1.435,2.746-4.875,2.6-7.313-.287-4.861-5.618-5.912-9-4.347-3.877,1.792-4.759,6.6-3.008,8.8.222.279.393.449.32.733-.114.44-.212.882-.334,1.32a.468.468,0,0,1-.692.31,3.969,3.969,0,0,1-1.619-1.214c-1.487-1.841-1.912-5.482.054-8.564a10.291,10.291,0,0,1,9.927-4.378,8.406,8.406,0,0,1,7.732,6.944,11.56,11.56,0,0,1-2.122,8.125c-2.519,3.124-6.6,3.331-8.486,1.413C1672.821,248.717,1672.7,248.545,1672.562,248.369Z" transform="translate(-1664.59 -232.31)" fill="#fff" fill-rule="evenodd"/>
</svg>
