<svg xmlns="http://www.w3.org/2000/svg" width="17.996" height="14.137" viewBox="0 0 17.996 14.137">
  <path id="Path_1133" data-name="Path 1133" d="M1239.251,274.486h-12.8a2.6,2.6,0,0,0-2.6,2.6v8.941a2.6,2.6,0,0,0,2.6,2.6h12.8a2.6,2.6,0,0,0,2.6-2.6v-8.941A2.6,2.6,0,0,0,1239.251,274.486Zm0,1.242a1.358,1.358,0,0,1,.309.036l-5.4,6.127a1.744,1.744,0,0,1-2.617,0l-5.4-6.127a1.352,1.352,0,0,1,.308-.036Zm1.356,10.3a1.358,1.358,0,0,1-1.356,1.356h-12.8a1.358,1.358,0,0,1-1.356-1.356v-8.941a1.349,1.349,0,0,1,.1-.514l5.414,6.143a2.986,2.986,0,0,0,4.48,0l5.414-6.143a1.342,1.342,0,0,1,.1.514Z" transform="translate(-1223.853 -274.486)" fill="#fff"/>
</svg>
