<svg xmlns="http://www.w3.org/2000/svg" width="25.017" height="17.512" viewBox="0 0 25.017 17.512">
  <path id="Path_1142" data-name="Path 1142" d="M1744.664,242.906a5.49,5.49,0,0,0-5.49-5.489h-14.038a5.489,5.489,0,0,0-5.489,5.489v6.533a5.489,5.489,0,0,0,5.489,5.49h14.038a5.49,5.49,0,0,0,5.49-5.49Zm-8.255,3.756-6.295,3.114c-.247.134-1.086-.045-1.086-.326v-6.393c0-.284.845-.463,1.093-.322l6.026,3.279C1736.4,246.158,1736.664,246.524,1736.408,246.663Z" transform="translate(-1719.647 -237.417)" fill="#fff"/>
</svg>
